PathFileType  4	(X/Y/Z) C:\
DataRate	CameraRate	NumFrames	NumMarkers	Units	OrigDataRate	OrigDataStartFrame	OrigNumFrames
100.0	100.0	201	1	m	100.0	1	201
Frame#	Time  	end_effector
		X1	Y1	Z1

1	0.000000	1.500000	-1.000000	0.000000
2	0.010000	1.485000	-1.000000	0.000000
3	0.020000	1.470000	-1.000000	0.000000
4	0.030000	1.455000	-1.000000	0.000000
5	0.040000	1.440000	-1.000000	0.000000
6	0.050000	1.425000	-1.000000	0.000000
7	0.060000	1.410000	-1.000000	0.000000
8	0.070000	1.395000	-1.000000	0.000000
9	0.080000	1.380000	-1.000000	0.000000
10	0.090000	1.365000	-1.000000	0.000000
11	0.100000	1.350000	-1.000000	0.000000
12	0.110000	1.335000	-1.000000	0.000000
13	0.120000	1.320000	-1.000000	0.000000
14	0.130000	1.305000	-1.000000	0.000000
15	0.140000	1.290000	-1.000000	0.000000
16	0.150000	1.275000	-1.000000	0.000000
17	0.160000	1.260000	-1.000000	0.000000
18	0.170000	1.245000	-1.000000	0.000000
19	0.180000	1.230000	-1.000000	0.000000
20	0.190000	1.215000	-1.000000	0.000000
21	0.200000	1.200000	-1.000000	0.000000
22	0.210000	1.185000	-1.000000	0.000000
23	0.220000	1.170000	-1.000000	0.000000
24	0.230000	1.155000	-1.000000	0.000000
25	0.240000	1.140000	-1.000000	0.000000
26	0.250000	1.125000	-1.000000	0.000000
27	0.260000	1.110000	-1.000000	0.000000
28	0.270000	1.095000	-1.000000	0.000000
29	0.280000	1.080000	-1.000000	0.000000
30	0.290000	1.065000	-1.000000	0.000000
31	0.300000	1.050000	-1.000000	0.000000
32	0.310000	1.035000	-1.000000	0.000000
33	0.320000	1.020000	-1.000000	0.000000
34	0.330000	1.005000	-1.000000	0.000000
35	0.340000	0.990000	-1.000000	0.000000
36	0.350000	0.975000	-1.000000	0.000000
37	0.360000	0.960000	-1.000000	0.000000
38	0.370000	0.945000	-1.000000	0.000000
39	0.380000	0.930000	-1.000000	0.000000
40	0.390000	0.915000	-1.000000	0.000000
41	0.400000	0.900000	-1.000000	0.000000
42	0.410000	0.885000	-1.000000	0.000000
43	0.420000	0.870000	-1.000000	0.000000
44	0.430000	0.855000	-1.000000	0.000000
45	0.440000	0.840000	-1.000000	0.000000
46	0.450000	0.825000	-1.000000	0.000000
47	0.460000	0.810000	-1.000000	0.000000
48	0.470000	0.795000	-1.000000	0.000000
49	0.480000	0.780000	-1.000000	0.000000
50	0.490000	0.765000	-1.000000	0.000000
51	0.500000	0.750000	-1.000000	0.000000
52	0.510000	0.735000	-1.000000	0.000000
53	0.520000	0.720000	-1.000000	0.000000
54	0.530000	0.705000	-1.000000	0.000000
55	0.540000	0.690000	-1.000000	0.000000
56	0.550000	0.675000	-1.000000	0.000000
57	0.560000	0.660000	-1.000000	0.000000
58	0.570000	0.645000	-1.000000	0.000000
59	0.580000	0.630000	-1.000000	0.000000
60	0.590000	0.615000	-1.000000	0.000000
61	0.600000	0.600000	-1.000000	0.000000
62	0.610000	0.585000	-1.000000	0.000000
63	0.620000	0.570000	-1.000000	0.000000
64	0.630000	0.555000	-1.000000	0.000000
65	0.640000	0.540000	-1.000000	0.000000
66	0.650000	0.525000	-1.000000	0.000000
67	0.660000	0.510000	-1.000000	0.000000
68	0.670000	0.495000	-1.000000	0.000000
69	0.680000	0.480000	-1.000000	0.000000
70	0.690000	0.465000	-1.000000	0.000000
71	0.700000	0.450000	-1.000000	0.000000
72	0.710000	0.435000	-1.000000	0.000000
73	0.720000	0.420000	-1.000000	0.000000
74	0.730000	0.405000	-1.000000	0.000000
75	0.740000	0.390000	-1.000000	0.000000
76	0.750000	0.375000	-1.000000	0.000000
77	0.760000	0.360000	-1.000000	0.000000
78	0.770000	0.345000	-1.000000	0.000000
79	0.780000	0.330000	-1.000000	0.000000
80	0.790000	0.315000	-1.000000	0.000000
81	0.800000	0.300000	-1.000000	0.000000
82	0.810000	0.285000	-1.000000	0.000000
83	0.820000	0.270000	-1.000000	0.000000
84	0.830000	0.255000	-1.000000	0.000000
85	0.840000	0.240000	-1.000000	0.000000
86	0.850000	0.225000	-1.000000	0.000000
87	0.860000	0.210000	-1.000000	0.000000
88	0.870000	0.195000	-1.000000	0.000000
89	0.880000	0.180000	-1.000000	0.000000
90	0.890000	0.165000	-1.000000	0.000000
91	0.900000	0.150000	-1.000000	0.000000
92	0.910000	0.135000	-1.000000	0.000000
93	0.920000	0.120000	-1.000000	0.000000
94	0.930000	0.105000	-1.000000	0.000000
95	0.940000	0.090000	-1.000000	0.000000
96	0.950000	0.075000	-1.000000	0.000000
97	0.960000	0.060000	-1.000000	0.000000
98	0.970000	0.045000	-1.000000	0.000000
99	0.980000	0.030000	-1.000000	0.000000
100	0.990000	0.015000	-1.000000	0.000000
101	1.000000	0.000000	-1.000000	0.000000
102	1.010000	-0.015000	-1.000000	0.000000
103	1.020000	-0.030000	-1.000000	0.000000
104	1.030000	-0.045000	-1.000000	0.000000
105	1.040000	-0.060000	-1.000000	0.000000
106	1.050000	-0.075000	-1.000000	0.000000
107	1.060000	-0.090000	-1.000000	0.000000
108	1.070000	-0.105000	-1.000000	0.000000
109	1.080000	-0.120000	-1.000000	0.000000
110	1.090000	-0.135000	-1.000000	0.000000
111	1.100000	-0.150000	-1.000000	0.000000
112	1.110000	-0.165000	-1.000000	0.000000
113	1.120000	-0.180000	-1.000000	0.000000
114	1.130000	-0.195000	-1.000000	0.000000
115	1.140000	-0.210000	-1.000000	0.000000
116	1.150000	-0.225000	-1.000000	0.000000
117	1.160000	-0.240000	-1.000000	0.000000
118	1.170000	-0.255000	-1.000000	0.000000
119	1.180000	-0.270000	-1.000000	0.000000
120	1.190000	-0.285000	-1.000000	0.000000
121	1.200000	-0.300000	-1.000000	0.000000
122	1.210000	-0.315000	-1.000000	0.000000
123	1.220000	-0.330000	-1.000000	0.000000
124	1.230000	-0.345000	-1.000000	0.000000
125	1.240000	-0.360000	-1.000000	0.000000
126	1.250000	-0.375000	-1.000000	0.000000
127	1.260000	-0.390000	-1.000000	0.000000
128	1.270000	-0.405000	-1.000000	0.000000
129	1.280000	-0.420000	-1.000000	0.000000
130	1.290000	-0.435000	-1.000000	0.000000
131	1.300000	-0.450000	-1.000000	0.000000
132	1.310000	-0.465000	-1.000000	0.000000
133	1.320000	-0.480000	-1.000000	0.000000
134	1.330000	-0.495000	-1.000000	0.000000
135	1.340000	-0.510000	-1.000000	0.000000
136	1.350000	-0.525000	-1.000000	0.000000
137	1.360000	-0.540000	-1.000000	0.000000
138	1.370000	-0.555000	-1.000000	0.000000
139	1.380000	-0.570000	-1.000000	0.000000
140	1.390000	-0.585000	-1.000000	0.000000
141	1.400000	-0.600000	-1.000000	0.000000
142	1.410000	-0.615000	-1.000000	0.000000
143	1.420000	-0.630000	-1.000000	0.000000
144	1.430000	-0.645000	-1.000000	0.000000
145	1.440000	-0.660000	-1.000000	0.000000
146	1.450000	-0.675000	-1.000000	0.000000
147	1.460000	-0.690000	-1.000000	0.000000
148	1.470000	-0.705000	-1.000000	0.000000
149	1.480000	-0.720000	-1.000000	0.000000
150	1.490000	-0.735000	-1.000000	0.000000
151	1.500000	-0.750000	-1.000000	0.000000
152	1.510000	-0.765000	-1.000000	0.000000
153	1.520000	-0.780000	-1.000000	0.000000
154	1.530000	-0.795000	-1.000000	0.000000
155	1.540000	-0.810000	-1.000000	0.000000
156	1.550000	-0.825000	-1.000000	0.000000
157	1.560000	-0.840000	-1.000000	0.000000
158	1.570000	-0.855000	-1.000000	0.000000
159	1.580000	-0.870000	-1.000000	0.000000
160	1.590000	-0.885000	-1.000000	0.000000
161	1.600000	-0.900000	-1.000000	0.000000
162	1.610000	-0.915000	-1.000000	0.000000
163	1.620000	-0.930000	-1.000000	0.000000
164	1.630000	-0.945000	-1.000000	0.000000
165	1.640000	-0.960000	-1.000000	0.000000
166	1.650000	-0.975000	-1.000000	0.000000
167	1.660000	-0.990000	-1.000000	0.000000
168	1.670000	-1.005000	-1.000000	0.000000
169	1.680000	-1.020000	-1.000000	0.000000
170	1.690000	-1.035000	-1.000000	0.000000
171	1.700000	-1.050000	-1.000000	0.000000
172	1.710000	-1.065000	-1.000000	0.000000
173	1.720000	-1.080000	-1.000000	0.000000
174	1.730000	-1.095000	-1.000000	0.000000
175	1.740000	-1.110000	-1.000000	0.000000
176	1.750000	-1.125000	-1.000000	0.000000
177	1.760000	-1.140000	-1.000000	0.000000
178	1.770000	-1.155000	-1.000000	0.000000
179	1.780000	-1.170000	-1.000000	0.000000
180	1.790000	-1.185000	-1.000000	0.000000
181	1.800000	-1.200000	-1.000000	0.000000
182	1.810000	-1.215000	-1.000000	0.000000
183	1.820000	-1.230000	-1.000000	0.000000
184	1.830000	-1.245000	-1.000000	0.000000
185	1.840000	-1.260000	-1.000000	0.000000
186	1.850000	-1.275000	-1.000000	0.000000
187	1.860000	-1.290000	-1.000000	0.000000
188	1.870000	-1.305000	-1.000000	0.000000
189	1.880000	-1.320000	-1.000000	0.000000
190	1.890000	-1.335000	-1.000000	0.000000
191	1.900000	-1.350000	-1.000000	0.000000
192	1.910000	-1.365000	-1.000000	0.000000
193	1.920000	-1.380000	-1.000000	0.000000
194	1.930000	-1.395000	-1.000000	0.000000
195	1.940000	-1.410000	-1.000000	0.000000
196	1.950000	-1.425000	-1.000000	0.000000
197	1.960000	-1.440000	-1.000000	0.000000
198	1.970000	-1.455000	-1.000000	0.000000
199	1.980000	-1.470000	-1.000000	0.000000
200	1.990000	-1.485000	-1.000000	0.000000
201	2.000000	-1.500000	-1.000000	0.000000
